<svg width="100%" height="440" xmlns="http://www.w3.org/2000/svg">
    <rect id="Chr1" x="0" y="0" width="46.7597552829516%" height="20" fill="black" />
    <rect id="Chr2" x="0" y="22" width="58.627145510787585%" height="20" fill="black" />
    <rect id="Chr3" x="0" y="44" width="57.34112013238798%" height="20" fill="black" />
    <rect id="Chr4" x="0" y="66" width="60.58032367751499%" height="20" fill="black" />
    <rect id="Chr5" x="0" y="88" width="70.35988756308974%" height="20" fill="black" />
    <rect id="Chr6" x="0" y="110" width="53.09823087889778%" height="20" fill="black" />
    <rect id="Chr7" x="0" y="132" width="67.63649366533902%" height="20" fill="black" />
    <rect id="Chr8" x="0" y="154" width="55.7712964372988%" height="20" fill="black" />
    <rect id="Chr9" x="0" y="176" width="76.6442926365485%" height="20" fill="black" />
    <rect id="Chr10" x="0" y="198" width="50.93574798303874%" height="20" fill="black" />
    <rect id="Chr11" x="0" y="220" width="100%" height="20" fill="black" />
    <rect id="Chr12" x="0" y="242" width="66.48357935068978%" height="20" fill="black" />
    <rect id="Chr13" x="0" y="264" width="48.49083488045445%" height="20" fill="black" />
    <rect id="Chr14" x="0" y="286" width="63.89596433111987%" height="20" fill="black" />
    <rect id="Chr15" x="0" y="308" width="61.4067144060591%" height="20" fill="black" />
    <rect id="Chr16" x="0" y="330" width="58.56760456036923%" height="20" fill="black" />
    <rect id="Chr17" x="0" y="352" width="71.40755398295339%" height="20" fill="black" />
    <rect id="Chr18" x="0" y="374" width="41.98800099155782%" height="20" fill="black" />
    <rect id="Chr19" x="0" y="396" width="53.79275592614435%" height="20" fill="black" />
    <rect id="Chr20" x="0" y="418" width="60.55845403734984%" height="20" fill="black" />
</svg>